<?xml version="1.0" ?><svg id="Layer_1" style="enable-background:new 0 0 128 128;" version="1.1" viewBox="0 0 128 128" xml:space="preserve" xmlns="http://www.w3.org/2000/svg" xmlns:xlink="http://www.w3.org/1999/xlink"><style type="text/css">
	.st0{fill:#F7F7EB;}
	.st1{fill:#FFC298;}
	.st2{fill:#E1927A;}
	.st3{fill:#DC5240;}
	.st4{fill:#892E1D;}
	.st5{fill:#AA4628;}
	.st6{fill:#6F1E14;}
	.st7{fill:#2C0412;}
	.st8{fill:#A4D877;}
	.st9{fill:#2AC06F;}
	.st10{fill:#F54045;}
	.st11{fill:#A91B35;}
	.st12{fill:#2652E4;}
	.st13{fill:#BDE5EC;}
	.st14{fill:#172A91;}
	.st15{fill:#F9A73D;}
	.st16{fill:#D25C2B;}
	.st17{fill:#812F4B;}
	.st18{fill:#3B0B1B;}
	.st19{fill:#FA9A31;}
	.st20{fill:#DC5F36;}
	.st21{fill:#BEECBD;}
	.st22{fill:#26E490;}
	.st23{fill:#10916A;}
	.st24{fill:#ECC6C3;}
	.st25{fill:#E44450;}
	.st26{fill:none;stroke:#E44450;stroke-width:2;stroke-linecap:round;stroke-miterlimit:10;}
	.st27{fill:url(#SVGID_1_);}
	.st28{fill:none;stroke:#BDE5EC;stroke-width:14;stroke-linecap:round;stroke-linejoin:round;stroke-miterlimit:10;}
	.st29{fill:none;stroke:#FFFFFF;stroke-width:6;stroke-linecap:round;stroke-miterlimit:10;}
	.st30{fill:none;stroke:#E44450;stroke-width:6;stroke-miterlimit:10;}
	.st31{fill:url(#SVGID_2_);}
	.st32{fill:none;stroke:#E44450;stroke-width:4;stroke-miterlimit:10;stroke-dasharray:6,4;}
	.st33{fill:none;stroke:#BDE5EC;stroke-width:4;stroke-miterlimit:10;}
	.st34{opacity:0.5;}
	.st35{fill:none;stroke:#E1927A;stroke-width:10;stroke-linecap:round;stroke-miterlimit:10;}
	.st36{fill:none;stroke:#FFFFFF;stroke-width:2;stroke-linecap:round;stroke-miterlimit:10;}
	.st37{fill:#FFFFFF;}
	.st38{fill:#C1705D;}
	.st39{fill:none;stroke:#E1927A;stroke-width:2.8371;stroke-linecap:round;stroke-miterlimit:10;}
	.st40{fill:none;stroke:#ECC6C3;stroke-width:4;stroke-linecap:round;stroke-miterlimit:10;}
	.st41{fill:none;}
	.st42{fill:url(#SVGID_3_);}
	.st43{fill:none;stroke:#E44450;stroke-width:8;stroke-miterlimit:10;}
	.st44{fill:none;stroke:#BDE5EC;stroke-width:8;stroke-miterlimit:10;}
	.st45{fill:none;stroke:#FFFFFF;stroke-width:4;stroke-miterlimit:10;}
	.st46{fill:none;stroke:#BDE5EC;stroke-width:3;stroke-linecap:square;stroke-miterlimit:10;}
	.st47{fill:none;stroke:#FFFFFF;stroke-width:3;stroke-linecap:square;stroke-miterlimit:10;}
	.st48{fill:none;stroke:#E1927A;stroke-width:2.2567;stroke-linecap:round;stroke-miterlimit:10;}
	.st49{fill:none;stroke:#BDE5EC;stroke-width:6;stroke-miterlimit:10;}
</style><g><rect class="st13" height="73.9" width="88" x="21" y="54.1"/><polygon class="st13" points="128,58.8 0.3,58.8 65,0  "/><g><path class="st12" d="M58.8,106.4c-1.8,0.5-5.8,1.5-9,2.3c-3,0.7-5.3,3-6.2,5.9L39.5,128h52.4l-3.6-13.4c-0.8-2.9-3.1-5.2-6-6.1    l-8.4-2.4L58.8,106.4z"/><path class="st1" d="M59.8,98.3l-1.1,8.1c0,0,9.3,9.4,15.2-0.3c-2.8-7.8-0.5-12.5-0.5-12.5L73,88.9l-8.2,0.9L59.8,98.3z"/><path class="st2" d="M70.7,92c0-0.2,2.4-1.6,2.5-1.8L73,88.9l-8.2,0.9l-4.9,8.4l-0.7,5.7c2.3,0.2,5.3-1.1,6.4-1.7    C69.2,100.5,70.3,97.2,70.7,92z"/><path class="st1" d="M54.6,98.2c3.8,4,9.2,2.6,11.1,1.4c2.8-1.6,7.3-5.4,8.2-10.8c0.9-5.4,0.9-9.9-2.8-14.9    c-3.8-5.1-18.4-4-18.9-3.2C48.3,77.2,50.8,94.2,54.6,98.2z"/><path class="st4" d="M45.4,67.8c0,0-1.8,6.6,5,9.1c6.6,2.4,13.7-2.5,13.7-2.5s0,10.7,9.3,19.1c8.1-2.1,12.4-21.9-1.3-28.7    c-14.2-7.1-22.3,4.7-22.3,4.7L45.4,67.8z"/><path class="st1" d="M68.4,88.3c0,0,3.9,1.4,3.8-1.9s-4.4-7-5.8-1.9"/><path class="st4" d="M51.3,70.1c-2,0-3.5-1.6-3.5-3.5c0-2,1.6-3.5,3.5-3.5"/></g><g><path class="st25" d="M51.5,36.1v-0.4c0-0.8,0.3-1.3,0.8-1.3h3.4V23l-3.4,0.5c-0.3,0-0.5-0.2-0.6-0.7c-0.1-0.5-0.2-0.9-0.2-1.4    c0-0.4,0.2-0.7,0.7-0.8l6.3-1.2c0.2,0,0.4,0.1,0.7,0.2c0.2,0.1,0.4,0.3,0.4,0.4v14.2h2.7c0.5,0,0.8,0.4,0.8,1.3v0.4    c0,0.8-0.3,1.3-0.8,1.3h-9.8C51.8,37.3,51.5,36.9,51.5,36.1z"/><path class="st25" d="M65.2,33.8c-0.2,0-0.4-0.3-0.6-0.9c-0.2-0.6-0.3-1-0.3-1.3c0-0.3,0-0.4,0.1-0.5l7.5-11    c0.2-0.3,0.7-0.5,1.5-0.5h0.7c1,0,1.5,0.3,1.5,0.8v10.4h1c0.5,0,0.8,0.4,0.8,1.3v0.4c0,0.8-0.3,1.3-0.8,1.3h-1v2.8    c0,0.5-0.5,0.8-1.5,0.8h-0.7c-1,0-1.5-0.3-1.5-0.8v-2.8H65.2z M71.8,30.8V25l-0.1,0L68,30.8H71.8z"/></g><g><path class="st37" d="M44.2,53.6v-11c0-0.5,0.2-0.7,0.7-0.7h4c1.8,0,3.2,0.5,4.2,1.6c1,1.1,1.5,2.6,1.5,4.6s-0.5,3.5-1.5,4.6    c-1,1.1-2.4,1.6-4.2,1.6h-4C44.4,54.3,44.2,54.1,44.2,53.6z M46.9,52h1.9c0.9,0,1.7-0.3,2.2-1c0.5-0.7,0.7-1.6,0.7-2.9    s-0.2-2.2-0.7-2.9c-0.5-0.7-1.2-1-2.2-1h-1.9V52z"/><path class="st37" d="M55.3,53.9c0,0,0-0.2,0.1-0.3l3.9-11.4c0.1-0.2,0.4-0.4,1-0.4h0.9c0.6,0,0.9,0.1,1,0.4l3.9,11.4    c0,0.1,0.1,0.2,0.1,0.3c0,0.3-0.3,0.4-0.9,0.4h-0.8c-0.6,0-0.9-0.1-1-0.4l-0.7-2.2h-4.2L57.9,54c-0.1,0.2-0.4,0.4-0.8,0.4h-0.7    C55.7,54.3,55.3,54.2,55.3,53.9z M59.4,49.4h2.7l-1-3.2l-0.3-1.1h-0.1c-0.1,0.6-0.2,0.9-0.3,1.1L59.4,49.4z"/><path class="st37" d="M69.8,53.8v-5.4l-3.5-5.7c-0.1-0.2-0.2-0.3-0.2-0.4c0-0.2,0.4-0.4,1.1-0.4H68c0.6,0,0.9,0.1,1.1,0.3l2.2,3.8    l2.2-3.8c0.1-0.2,0.5-0.3,1.1-0.3h0.6c0.7,0,1.1,0.1,1.1,0.4c0,0.1-0.1,0.3-0.2,0.4l-3.5,5.8v5.4c0,0.4-0.4,0.6-1.1,0.6h-0.6    C70.2,54.3,69.8,54.1,69.8,53.8z"/><path class="st37" d="M76.5,52.9c0-0.3,0.1-0.6,0.4-1c0.3-0.4,0.5-0.6,0.7-0.6c0.1,0,0.2,0.1,0.5,0.2c0.7,0.4,1.5,0.6,2.2,0.6    c1.1,0,1.7-0.4,1.7-1.3c0-0.4-0.2-0.7-0.5-1c-0.4-0.3-0.8-0.5-1.3-0.7c-0.5-0.2-1-0.4-1.5-0.7s-0.9-0.6-1.3-1.2    c-0.4-0.5-0.5-1.2-0.5-2c0-0.8,0.2-1.5,0.6-2.1c0.8-1,2-1.5,3.6-1.5c0.9,0,1.7,0.1,2.3,0.4s0.9,0.5,0.9,0.9c0,0.3-0.1,0.6-0.3,1    c-0.2,0.4-0.4,0.6-0.6,0.6c0,0-0.2,0-0.3-0.1c-0.5-0.2-1-0.3-1.6-0.3s-1.1,0.1-1.3,0.3c-0.2,0.2-0.4,0.5-0.4,0.8s0.2,0.6,0.5,0.9    c0.4,0.2,0.8,0.5,1.3,0.7c0.5,0.2,1,0.4,1.5,0.7c0.5,0.3,0.9,0.6,1.3,1.2c0.4,0.5,0.5,1.2,0.5,1.9c0,0.7-0.1,1.4-0.3,1.9    c-0.2,0.5-0.5,0.9-1,1.2c-0.8,0.6-1.7,0.9-2.9,0.9c-1.1,0-2.1-0.2-2.9-0.5C76.9,53.6,76.5,53.2,76.5,52.9z"/></g><rect class="st41" height="128" width="128"/></g></svg>