<?xml version="1.0" ?><svg data-name="Layer 1" id="Layer_1" viewBox="0 0 128 128" xmlns="http://www.w3.org/2000/svg"><defs><style>.cls-1{fill:#ffc298;}.cls-2{fill:#aa4628;}.cls-3,.cls-4,.cls-7{fill:none;}.cls-3{stroke:#e1927a;stroke-miterlimit:10;}.cls-3,.cls-4{stroke-linecap:round;stroke-width:2.5px;}.cls-4{stroke:#892e1d;stroke-linejoin:round;}.cls-5{fill:#e44450;}.cls-6{fill:#fff;}</style></defs><title/><path class="cls-1" d="M91.5,61.47c7.6,0,23.38-11,23.38-11L128,79s-19.45,16.48-24.66,20.26-35.9,24.12-46.65,25.31c-5.32-16.08,6-52,6-52S75.66,61.47,91.5,61.47Z"/><path class="cls-2" d="M14.78,50.46s7.08,5.69,12.28,9.24,5.11,2.95,17.16,3.42A145,145,0,0,1,65.5,65.49s6.43,12,15.84,14.93c10.16,3.17,24,10.9,26.26,13.17,2.72,2.69-2.86,9.25-8.77,8.07,2.13,1.65-1.18,7.33-6.62,7.68,1,3.43-7.56,6.26-10.87,6.26-2.6,3.08-8.27,5-15.26,4.26-5.52-.58-25.4,1-37.46-13.12A322.38,322.38,0,0,0,1,79Z"/><path class="cls-1" d="M43.56,76.21q5.31-3.39,10.57-6.84l5.28-3.43,2.64-1.72.72-.46c.42-.27.86-.5,1.3-.73a15.92,15.92,0,0,1,2.8-1.13,14.39,14.39,0,0,1,3-.54l.39,0,.21,0,.39-.05.79-.11,3.17-.45c2.11-.31,4.22-.59,6.32-.79,4.21-.37,8.42-.61,12.58.38a9.16,9.16,0,0,1-.67,18c-4.22.67-8.4.13-12.57-.56-2.08-.35-4.16-.79-6.24-1.25l-3.13-.68-.78-.17L70,75.51l-.18,0v0a.52.52,0,0,0-.1-.23.47.47,0,0,0-.19-.16h-.1l-.11.06-.17.09-.35.19L66,76.9l-5.52,3q-5.52,3-11,6.11a5.74,5.74,0,0,1-5.91-9.84Z"/><path class="cls-1" d="M38.86,98.85a43.07,43.07,0,0,0,.49,13.59,4.21,4.21,0,1,1-8.25,1.72,4.34,4.34,0,0,1-.07-.52v-.08A50.67,50.67,0,0,1,32.46,97.7a3.26,3.26,0,0,1,6.4,1.13Z"/><path class="cls-1" d="M45.76,98.18a100.68,100.68,0,0,0,1.11,17.12,4.53,4.53,0,1,1-8.95,1.44,3.38,3.38,0,0,1-.06-.77v-.07a107.25,107.25,0,0,1,2-18.33,3,3,0,0,1,5.85.59Z"/><path class="cls-1" d="M53.17,101a69.15,69.15,0,0,0,.66,16.8,4.53,4.53,0,1,1-8.93,1.5,5,5,0,0,1-.06-.54v-.07A76.74,76.74,0,0,1,46.45,100a3.4,3.4,0,0,1,6.72,1Z"/><path class="cls-1" d="M58.69,107.54a55.38,55.38,0,0,0,1.66,11.63,4.35,4.35,0,1,1-8.42,2.19,3.64,3.64,0,0,1-.13-.72v-.09a63.43,63.43,0,0,1,.41-13.32,3.26,3.26,0,0,1,6.48.28Z"/><path class="cls-1" d="M67.77,73.55s1.31,6.54,12.16,10.26c11.7,4,18.81-1.19,21.18-4.89C104.77,73.2,97.48,64,97.48,64Z"/><path class="cls-3" d="M39,98.27a72.21,72.21,0,0,0-.87,9.91"/><path class="cls-3" d="M45.78,99.24a110,110,0,0,0-.57,14.38"/><path class="cls-3" d="M53.31,106a44.83,44.83,0,0,0-.87,9.19"/><path class="cls-4" d="M98.83,101.66c-5.81-1.14-12.09-3.78-18.64-7.28"/><path class="cls-4" d="M92.21,109.34a42,42,0,0,1-14.56-5.6"/><path class="cls-4" d="M80.51,115.6s-5.2-2.35-11.7-5.68"/><path class="cls-5" d="M58.78,5.69,39.31,39.42A3.72,3.72,0,0,0,42.53,45H81.47a3.72,3.72,0,0,0,3.22-5.58L65.22,5.69A3.72,3.72,0,0,0,58.78,5.69Z"/><polygon class="cls-6" points="65.5 15.5 63.49 30.36 60.51 30.36 58.5 15.5 65.5 15.5"/><circle class="cls-6" cx="62" cy="36.73" r="2.5"/><rect class="cls-7" height="128" width="128"/></svg>