<svg width="129" height="129" viewBox="0 0 129 129" fill="none" xmlns="http://www.w3.org/2000/svg">
<path d="M129 64.5C129 100.122 100.122 129 64.5 129C28.8817 129 0 100.122 0 64.5C0 28.8817 28.8817 0 64.5 0C100.122 0 129 28.8817 129 64.5Z" fill="#FFCC4D"/>
<path d="M91.3212 107.066C91.16 106.425 87.1359 91.375 64.5 91.375C41.8605 91.375 37.84 106.425 37.6787 107.066C37.4816 107.844 37.8328 108.65 38.528 109.052C39.2267 109.442 40.101 109.335 40.678 108.776C40.746 108.708 47.6798 102.125 64.5 102.125C81.3201 102.125 88.2575 108.708 88.322 108.772C88.666 109.112 89.1246 109.292 89.5833 109.292C89.8843 109.292 90.1889 109.216 90.4648 109.062C91.1671 108.661 91.5183 107.848 91.3212 107.066V107.066ZM56.2834 61.9665C44.6196 50.3028 25.8752 50.1666 25.0833 50.1666C23.1053 50.1666 21.5035 51.7684 21.5035 53.7428C21.5 55.7208 23.1017 57.3261 25.0797 57.3333C25.1836 57.3333 31.9776 57.4121 39.3521 59.9742C37.2272 62.2675 35.8333 65.8294 35.8333 69.875C35.8333 76.8051 39.843 82.4166 44.7916 82.4166C49.7402 82.4166 53.75 76.8051 53.75 69.875C53.75 69.2515 53.6819 68.6566 53.6174 68.0582C53.664 68.0582 53.707 68.0833 53.75 68.0833C54.6673 68.0833 55.5846 67.7321 56.2834 67.0334C57.6845 65.6323 57.6845 63.3676 56.2834 61.9665V61.9665ZM103.917 50.1666C103.125 50.1666 84.3839 50.3028 72.7165 61.9665C71.3155 63.3676 71.3155 65.6323 72.7165 67.0334C73.4153 67.7321 74.3326 68.0833 75.25 68.0833C75.2965 68.0833 75.336 68.0582 75.379 68.0582C75.3216 68.6566 75.25 69.2515 75.25 69.875C75.25 76.8051 79.2597 82.4166 84.2083 82.4166C89.1569 82.4166 93.1666 76.8051 93.1666 69.875C93.1666 65.8294 91.7727 62.2675 89.6478 59.9742C97.0223 57.4121 103.816 57.3333 103.924 57.3333C105.898 57.3261 107.5 55.7208 107.496 53.7428C107.493 51.7684 105.895 50.1666 103.917 50.1666V50.1666Z" fill="#664500"/>
</svg>
