<svg width="112" height="112" viewBox="0 0 112 112" fill="none" xmlns="http://www.w3.org/2000/svg">
<path d="M112 56C112 86.9276 86.9276 112 56 112C25.0756 112 0 86.9276 0 56C0 25.0756 25.0756 0 56 0C86.9276 0 112 25.0756 112 56Z" fill="#FFCC4D"/>
<path d="M88.5329 55.3684C88.3462 54.9484 83.8693 45.1111 74.6667 45.1111C65.4671 45.1111 60.9871 54.9484 60.8004 55.3684C60.5142 56.0124 60.7009 56.7653 61.2515 57.2071C61.796 57.6489 62.5769 57.6644 63.1493 57.2506C63.1867 57.2226 67.0755 54.4444 74.6667 54.4444C82.2142 54.4444 86.0969 57.1853 86.184 57.2475C86.4578 57.4529 86.7875 57.5555 87.1111 57.5555C87.4533 57.5555 87.7987 57.4404 88.0818 57.2164C88.6324 56.7746 88.8222 56.0155 88.5329 55.3684V55.3684ZM51.1996 55.3684C51.0129 54.9484 46.536 45.1111 37.3333 45.1111C28.1338 45.1111 23.6538 54.9484 23.4671 55.3684C23.1809 56.0124 23.3676 56.7653 23.9151 57.2071C24.4627 57.6489 25.2436 57.6644 25.8129 57.2506C25.8533 57.2226 29.7391 54.4444 37.3333 54.4444C44.8809 54.4444 48.7635 57.1853 48.8507 57.2475C49.1244 57.4529 49.4542 57.5555 49.7778 57.5555C50.12 57.5555 50.4653 57.4404 50.7484 57.2164C51.3022 56.7746 51.4858 56.0155 51.1996 55.3684V55.3684ZM56 68.4444C44.7284 68.4444 37.2493 67.1315 28 65.3333C25.8876 64.9258 21.7778 65.3333 21.7778 71.5555C21.7778 84 36.0733 99.5555 56 99.5555C75.9235 99.5555 90.2222 84 90.2222 71.5555C90.2222 65.3333 86.1124 64.9226 84 65.3333C74.7507 67.1315 67.2715 68.4444 56 68.4444Z" fill="#664500"/>
<path d="M28 71.5555C28 71.5555 37.3333 74.6667 56 74.6667C74.6667 74.6667 84 71.5555 84 71.5555C84 71.5555 77.7778 84 56 84C34.2222 84 28 71.5555 28 71.5555Z" fill="white"/>
</svg>
