<svg width="129" height="129" viewBox="0 0 129 129" fill="none" xmlns="http://www.w3.org/2000/svg">
<path d="M129 64.5C129 100.122 100.122 129 64.5 129C28.8817 129 0 100.122 0 64.5C0 28.8817 28.8817 0 64.5 0C100.122 0 129 28.8817 129 64.5Z" fill="#FFCC4D"/>
<path d="M41.2083 71.6667C46.1559 71.6667 50.1667 66.0516 50.1667 59.125C50.1667 52.1985 46.1559 46.5834 41.2083 46.5834C36.2608 46.5834 32.25 52.1985 32.25 59.125C32.25 66.0516 36.2608 71.6667 41.2083 71.6667Z" fill="#664500"/>
<path d="M87.7917 71.6667C92.7393 71.6667 96.75 66.0516 96.75 59.125C96.75 52.1985 92.7393 46.5834 87.7917 46.5834C82.8442 46.5834 78.8334 52.1985 78.8334 59.125C78.8334 66.0516 82.8442 71.6667 87.7917 71.6667Z" fill="#664500"/>
<path d="M89.5833 93.1667H39.4166C37.4386 93.1667 35.8333 91.5649 35.8333 89.5833C35.8333 87.6018 37.4386 86 39.4166 86H89.5833C91.5648 86 93.1666 87.6018 93.1666 89.5833C93.1666 91.5649 91.5648 93.1667 89.5833 93.1667Z" fill="#664500"/>
</svg>
